#!OML:ASF Y:\EmotionMaleHayes\Project 1\Capture day 1\Session 1\Male1.ASF
:FULLY-SPECIFIED
:DEGREES
424
root -22.522 16.69 0.944066 -62.3713 77.7537 -58.3447
lowerback 5.35986 2.01906 3.44212
upperback 3.50949 2.91902 1.0091
thorax 0.728951 1.54337 -1.0207
lowerneck -24.6586 1.65454 3.66917
upperneck 14.1161 0.521353 2.53639
head 8.41417 0.756782 0.355537
rclavicle 1.0635e-014 1.66979e-014
rhumerus -29.5081 14.4713 -94.6361
rradius 76.874
rwrist -3.51292
rhand -12.9744 -29.1197
rfingers 7.12502
rthumb 13.1179 -58.6871
lclavicle 1.0635e-014 1.66979e-014
lhumerus -40.7497 12.8845 76.7656
lradius 15.4101
lwrist -41.4962
lhand -3.10939 -21.1143
lfingers 7.12502
lthumb 22.609 7.58167
rfemur 14.5979 -11.8109 21.6513
rtibia 5.6828
rfoot -16.7671 -2.50575
rtoes 13.1239
lfemur -9.68706 6.33717 5.02596
ltibia 48.892
lfoot -17.3056 9.07502
ltoes -12.697
425
root -22.4585 16.6884 0.908548 -63.2674 77.2312 -59.1784
lowerback 5.46082 2.04506 4.21568
upperback 3.52075 2.99538 1.10615
thorax 0.724873 1.59503 -1.35824
lowerneck -24.8328 1.61382 3.68618
upperneck 13.9277 0.469797 2.47703
head 8.37753 0.724642 0.325646
rclavicle -5.26779e-015 1.35174e-014
rhumerus -29.3261 14.76 -94.9896
rradius 77.3942
rwrist -3.52127
rhand -12.7423 -28.7007
rfingers 7.12502
rthumb 13.3416 -58.2536
lclavicle -5.26779e-015 1.35174e-014
lhumerus -41.4759 11.5696 77.5019
lradius 15.1263
lwrist -42.4306
lhand -1.9348 -21.9453
lfingers 7.12502
lthumb 23.7359 6.60888
rfemur 15.0067 -11.3309 22.3298
rtibia 5.28331
rfoot -16.7795 -2.95137
rtoes 12.2734
lfemur -9.9686 6.22077 5.70725
ltibia 47.3114
lfoot -17.7791 9.75327
ltoes -13.749
426
root -22.3984 16.6868 0.871217 -63.2077 76.9022 -59.0633
lowerback 5.644 2.07874 4.65335
upperback 3.51211 3.07292 1.1581
thorax 0.640312 1.63969 -1.55963
lowerneck -24.9454 1.6281 3.75528
upperneck 13.5762 0.49824 2.34317
head 8.27523 0.721248 0.271815
rclavicle 2.03754e-014 -1.35174e-014
rhumerus -29.0532 15.3331 -95.3421
rradius 77.8287
rwrist -3.55699
rhand -12.7605 -28.8926
rfingers 7.12502
rthumb 13.3241 -58.4466
lclavicle 2.03754e-014 -1.35174e-014
lhumerus -42.3627 10.3086 78.3987
lradius 15.1669
lwrist -42.9329
lhand -1.60806 -22.5016
lfingers 7.12502
lthumb 24.0493 6.01158
rfemur 15.2935 -10.8045 22.6976
rtibia 5.08405
rfoot -16.8883 -3.38926
rtoes 11.4368
lfemur -10.2064 6.04786 6.07456
ltibia 45.5923
lfoot -17.8671 10.3045
ltoes -14.6968
427
root -22.3333 16.6817 0.832194 -62.0035 76.9516 -57.7862
lowerback 5.84469 2.15839 4.6189
upperback 3.45231 3.18932 1.09449
thorax 0.475929 1.69302 -1.62199
lowerneck -24.9185 1.58344 3.8785
upperneck 13.1249 0.456535 2.11503
head 8.1162 0.674552 0.166068
rclavicle 7.95139e-016 2.62396e-014
rhumerus -29.0532 15.9329 -95.7001
rradius 78.3525
rwrist -3.56771
rhand -12.772 -29.0256
rfingers 7.12502
rthumb 13.313 -58.5804
lclavicle 7.95139e-016 2.62396e-014
lhumerus -43.5927 8.40891 79.8418
lradius 15.7963
lwrist -42.1504
lhand -1.093 -22.5956
lfingers 7.12502
lthumb 24.5431 5.85141
rfemur 15.6135 -10.3374 22.4045
rtibia 4.99671
rfoot -17.097 -3.53533
rtoes 12.0008
lfemur -10.2847 5.69816 5.87063
ltibia 43.6656
lfoot -17.9785 10.5322
ltoes -15.2053
428
root -22.2676 16.6833 0.793042 -56.941 77.9621 -52.9232
lowerback 5.7206 2.39595 3.30218
upperback 3.2684 3.42604 0.659104
thorax 0.315421 1.78551 -1.3478
lowerneck -25.002 1.47819 3.72584
upperneck 12.9359 0.338683 2.28327
head 8.064 0.627339 0.231012
rclavicle -1.83876e-014 1.90833e-014
rhumerus -29.2203 16.3165 -96.035
rradius 78.8955
rwrist -3.58291
rhand -12.6033 -28.6492
rfingers 7.12502
rthumb 13.4756 -58.1932
lclavicle -1.83876e-014 1.90833e-014
lhumerus -44.8991 5.90435 81.7075
lradius 16.5302
lwrist -40.3263
lhand -0.21494 -22.7577
lfingers 7.12502
lthumb 25.3845 5.57245
rfemur 15.56 -10.1006 20.4594
rtibia 5.09587
rfoot -17.2779 -3.21856
rtoes 12.2275
lfemur -10.5593 5.25739 3.99747
ltibia 41.7571
lfoot -18.3074 10.5772
ltoes -15.0151
429
root -22.2085 16.6746 0.762384 -53.5102 77.2591 -49.5415
lowerback 5.67402 2.77344 3.3468
upperback 3.25332 3.92896 0.725317
thorax 0.348254 2.03715 -1.32571
lowerneck -25.226 1.43013 3.47183
upperneck 12.769 0.30728 2.55394
head 8.04244 0.628801 0.360024
rclavicle 6.4605e-015 -1.90833e-014
rhumerus -29.0927 16.7708 -96.1869
rradius 79.3352
rwrist -3.56673
rhand -12.6178 -28.1623
rfingers 7.12502
rthumb 13.4616 -57.7073
lclavicle 6.4605e-015 -1.90833e-014
lhumerus -45.8677 4.0297 83.3383
lradius 17.0362
lwrist -38.6841
lhand 0.436122 -23.1339
lfingers 7.12502
lthumb 26.008 5.10621
rfemur 15.4322 -9.34087 20.6268
rtibia 5.30774
rfoot -17.4026 -3.12317
rtoes 11.5901
lfemur -10.4227 5.66448 4.37063
ltibia 40.0518
lfoot -18.2596 9.98237
ltoes -15.1711
430
root -22.1341 16.6618 0.70386 -57.225 77.3879 -53.3829
lowerback 5.50056 2.51442 4.11399
upperback 3.25279 3.61278 0.746833
thorax 0.47744 1.89211 -1.70558
lowerneck -25.3219 1.441 3.53575
upperneck 12.5151 0.30191 2.58629
head 7.97148 0.630563 0.359709
rclavicle -2.28602e-014 -3.26007e-014
rhumerus -29.1247 17.2611 -96.4177
rradius 79.8796
rwrist -3.55139
rhand -12.5905 -27.8759
rfingers 7.12502
rthumb 13.4879 -57.4191
lclavicle -2.28602e-014 -3.26007e-014
lhumerus -46.729 2.80855 84.4005
lradius 17.2795
lwrist -37.3945
lhand 0.861035 -23.5535
lfingers 7.12502
lthumb 26.4148 4.6261
rfemur 15.9256 -9.64679 20.8326
rtibia 4.8759
rfoot -17.5168 -3.56251
rtoes 11.1301
lfemur -11.2621 4.58499 4.60807
ltibia 38.8618
lfoot -18.1371 9.1388
ltoes -16.0124
431
root -22.0726 16.66 0.679878 -54.3964 76.1592 -50.1995
lowerback 5.88338 2.95329 4.46626
upperback 3.33359 4.23919 0.952675
thorax 0.39701 2.211 -1.73523
lowerneck -25.5668 1.46849 3.756
upperneck 12.4232 0.297851 2.35729
head 7.97909 0.615472 0.248082
rclavicle 1.25234e-014 4.92986e-014
rhumerus -29.1997 17.8779 -96.5073
rradius 80.5037
rwrist -3.74088
rhand -12.299 -27.8248
rfingers 7.12502
rthumb 13.7689 -57.3492
lclavicle 1.25234e-014 4.92986e-014
lhumerus -47.5239 2.12865 85.1295
lradius 17.4146
lwrist -36.7254
lhand 1.45402 -24.2743
lfingers 7.12502
lthumb 26.9823 3.81884
rfemur 16.3021 -8.30832 21.6945
rtibia 4.86783
rfoot -17.6098 -3.78649
rtoes 10.3261
lfemur -10.3988 5.27453 5.63758
ltibia 37.313
lfoot -18.1129 8.55368
ltoes -16.8528
432
root -22.0056 16.6476 0.62232 -53.0612 76.265 -48.8209
lowerback 5.92184 3.03865 4.32464
upperback 3.31217 4.34682 0.898425
thorax 0.353603 2.26155 -1.72056
lowerneck -25.7134 1.45718 3.80186
upperneck 12.3726 0.295967 2.1644
head 7.98443 0.595505 0.175827
rclavicle -1.51076e-014 7.95139e-015
rhumerus -29.2108 18.5138 -96.5095
rradius 80.8769
rwrist -3.91123
rhand -12.1309 -27.7318
rfingers 7.12502
rthumb 13.9308 -57.2452
lclavicle -1.51076e-014 7.95139e-015
lhumerus -48.4997 2.00239 85.5633
lradius 17.6683
lwrist -36.5368
lhand 0.82387 -24.1968
lfingers 7.12502
lthumb 26.3793 3.98819
rfemur 16.5323 -8.11653 21.07
rtibia 4.83975
rfoot -17.6833 -3.84946
rtoes 8.81312
lfemur -10.4928 4.97256 5.1261
ltibia 36.1543
lfoot -18.0096 8.64704
ltoes -18.3393
